<svg width="18" height="14" fill="none" xmlns="http://www.w3.org/2000/svg"><path d="M9.023 8.2h.003a.7.7 0 00.379-.11l.03-.02.02-.012.342-.284 8.184-6.753a.096.096 0 00-.076-.04H.095a.092.092 0 00-.059.022L8.6 8.06a.67.67 0 00.424.14zM0 1.938V11.95l6.134-4.955L0 1.938zm11.873 5.09L18 11.952v-9.98l-6.127 5.056zM9.924 8.635c-.244.2-.563.31-.899.31-.337 0-.656-.11-.9-.309L6.722 7.478 0 12.906v.017c0 .052.044.096.096.096h17.809a.097.097 0 00.095-.096v-.016l-6.715-5.395-1.36 1.123z" fill="#000"/></svg>