<svg width="13" height="18" fill="none" xmlns="http://www.w3.org/2000/svg"><path fill-rule="evenodd" clip-rule="evenodd" d="M12.469 3.932c.084.178.173.368.224.548l.012.035c.06.164.295.82.295 1.021v.848c0 1.499-1.01 3.014-2.02 4.528-.38.571-.762 1.142-1.088 1.712-.06.105-.155.215-.251.327a2.49 2.49 0 00-.257.329c-.081.136-.168.276-.256.416-.13.206-.26.415-.38.624-.398.648-.8 1.31-1.206 1.977-.345.567-.691 1.136-1.038 1.703l-.529-.814c-1.05-1.617-2.103-3.238-3.123-4.882a54.308 54.308 0 00-.712-1.112C1.19 9.738.215 8.242.028 6.816A7.206 7.206 0 010 6.352v-.768C.42 1.824 3.56 0 6.412 0c2.13 0 4.769.992 5.976 3.76l.08.172zm-8.213 2.9c.453 1.104 1.37 1.504 2.209 1.504 1.342 0 2.452-1.024 2.452-2.304 0-1.28-1.038-2.304-2.38-2.304-1.09 0-2.343.64-2.343 2.048v.502c0 .06-.002.387.062.554z" fill="#000"/></svg>