<svg width="248" height="16" fill="none" xmlns="http://www.w3.org/2000/svg"><path fill-rule="evenodd" clip-rule="evenodd" d="M137.965 9h8.581V6.65h-8.581V9zm8.892 6.806v-2.35h-8.348c-.476 0-.836-.02-1.011-.194-.136-.116-.223-.36-.223-.602V3.505c0-.223 0-.534.243-.757.223-.204.544-.224.807-.224h8.445V.174h-10.03c-.602 0-1.36.05-1.875.603-.34.388-.535 1.01-.535 1.63v11.078c0 .602.039 1.311.574 1.826.515.495 1.117.495 1.788.495h10.165zM130.394.175h-2.857v11.524c0 .107 0 .379-.253.379-.194 0-.243-.224-.35-.379l-6.637-10.476C119.869.563 119.198 0 117.818 0c-1.477 0-2.39.777-2.39 2.116v13.69h2.857V4.33c0-.31.204-.446.311-.446.048 0 .136.048.359.378l6.59 10.408c.69 1.087 1.584 1.31 2.526 1.31 1.274 0 2.323-.62 2.323-2.203V.175zM98.916 7.99c0-2.388.35-3.611.962-4.378.913-1.136 2.391-1.272 4.014-1.272 1.593 0 3.129.136 4.052 1.272.486.611.953 1.68.953 4.378 0 2.525-.447 3.709-.953 4.35-.942 1.184-2.439 1.3-4.052 1.3-1.623 0-3.101-.116-4.014-1.3-.515-.641-.962-1.806-.962-4.35zM103.92 0c-1.905 0-4.49 0-6.24 1.65-1.7 1.612-1.807 4.224-1.807 6.34 0 1.767 0 4.602 1.807 6.34 1.72 1.65 4.384 1.65 6.24 1.65 1.807 0 4.529 0 6.229-1.65 1.614-1.563 1.789-4.281 1.789-6.34 0-2.048-.156-4.776-1.789-6.34C108.43 0 105.767 0 103.921 0zM87.827 15.806V2.524h6.123V.174H78.779v2.35h6.103v13.282h2.945zm-23.48 0h9.611c1.03 0 2.012-.117 2.79-1.117.65-.825.787-1.922.787-2.903 0-.737-.097-2.116-1.03-3.01-.467-.446-1.186-.786-2.236-1.116l-5.724-1.815c-1.244-.398-1.448-1.068-1.448-1.758 0-.29.02-.854.399-1.203.36-.34.826-.36 1.234-.36h7.998V.174H67.72c-.758 0-1.759.117-2.566.875-.894.825-1.01 1.96-1.01 2.902 0 .874.097 2.098.806 2.942.632.767 1.614 1.097 1.856 1.165L72.977 10c1.36.427 1.516 1.136 1.516 1.767 0 .534-.068 1.69-1.477 1.69h-8.67v2.349zM52.665 9h8.581V6.65h-8.581V9zm8.892 6.806v-2.35H53.2c-.466 0-.826-.02-1-.194-.137-.116-.224-.36-.224-.602V3.505c0-.223 0-.534.243-.757.223-.204.534-.224.807-.224h8.445V.174H51.43c-.602 0-1.36.05-1.875.603-.33.388-.535 1.01-.535 1.63v11.078c0 .602.05 1.311.584 1.826.515.495 1.117.495 1.788.495h10.165zm-14.46 0L39.7 9.223c-.418-.388-.913-.786-.913-1.475 0-.534.379-.826.739-1.165L46.27.175h-3.635l-5.928 5.854c-.418.418-.758 1.136-.758 1.738 0 .534.204 1.32.982 2.03l6.433 6.009h3.732zm-14.967 0h2.944V.175H32.13v15.63zm-13.49-3.952h6.181l-.797-2.097h-4.577l-.807 2.097zm-5.364 3.952h3.1l4.917-12.418c.088-.223.243-.64.448-.64.204 0 .359.417.447.64l4.917 12.418h3.1L24.306 1.767C23.752.447 23.082 0 21.74 0c-1.409 0-2.011.447-2.565 1.767l-5.9 14.039zm-.807 0v-2.35H3.887c-.466 0-.65-.106-.738-.174-.224-.204-.195-.496-.195-.67V.175H0v13.932c0 .67.311 1.097.554 1.291.36.291.943.408 1.458.408h10.457zM236.9 7.932V3.466c0-.272 0-.544.194-.738.224-.223.496-.204.7-.204h4.762c.486 0 1.322.02 1.837.534.486.515.554 1.457.554 2.146 0 .602-.049 1.612-.515 2.146-.515.582-1.273.582-1.924.582H236.9zm0 7.893v-5.543h7.328c.923 0 1.817-.292 2.4-.767 1.225-1 1.361-3.01 1.361-4.282 0-1.32-.107-3.087-1.186-4.116-.962-.942-2.284-.942-3.11-.942h-7.444c-.535 0-1.254.097-1.769.611-.534.534-.534 1.156-.534 1.738v13.301h2.954zm-13.693-2.175c-.914 0-2.255-.106-3.081-1-.739-.805-.768-1.854-.768-2.728V.175h-2.954V10.32c0 1.32.184 2.796 1.37 4 1.565 1.612 4.004 1.68 5.433 1.68 1.428 0 3.868-.068 5.432-1.68 1.186-1.204 1.371-2.68 1.371-4V.175h-2.955v9.747c0 .777-.019 1.942-.738 2.728-.807.894-2.255 1-3.11 1zM199.882 8c0-2.388.36-3.621.962-4.379.914-1.145 2.391-1.271 4.024-1.271 1.584 0 3.129.126 4.052 1.271.486.602.962 1.67.962 4.379 0 2.524-.447 3.709-.962 4.36-.942 1.184-2.439 1.29-4.052 1.29-1.633 0-3.11-.106-4.024-1.29-.515-.651-.962-1.816-.962-4.36zm5.005-8c-1.895 0-4.49 0-6.239 1.65-1.701 1.612-1.808 4.224-1.808 6.35 0 1.767 0 4.602 1.808 6.35 1.72 1.65 4.383 1.65 6.239 1.65 1.817 0 4.548 0 6.239-1.65 1.614-1.564 1.798-4.292 1.798-6.35s-.165-4.786-1.798-6.35C209.406 0 206.743 0 204.887 0zm-25.268 15.825h2.954V3.641c0-.31 0-.602.311-.874.243-.223.467-.243.778-.243h4.791c.466 0 1.186 0 1.652.466.311.32.564.942.564 2.175 0 .534-.049 1.65-.36 2.146-.408.621-1.098.689-1.613.689h-2.955c-.845 0-1.312.447-1.312 1.068v.36c0 .446.418 1.009.739 1.32l5.141 5.077h3.713l-5.948-5.524v-.107h2.012c1.788 0 2.546-.854 2.954-1.611.622-1.166.671-2.389.671-3.534 0-1.136-.049-2.37-.788-3.437-.913-1.37-2.254-1.437-3.352-1.437h-7.425c-.584 0-1.322.097-1.886.63-.622.603-.641 1.39-.641 2.03v12.99zM176.13 8h-7.027v2.194h4.072v2.233c0 .243 0 .554-.243.806-.252.243-.515.243-.787.243h-3.819c-1.254 0-2.352-.34-3.003-1.631-.243-.495-.622-1.563-.622-3.845 0-2.252.379-3.282.651-3.777.602-1.097 1.759-1.699 3.46-1.699h6.958V.174h-7.784c-1.497 0-2.819.34-3.781.962-2.303 1.505-2.546 4.379-2.546 6.951 0 2.195.155 4.913 2.06 6.505.71.602 1.895 1.233 3.645 1.233h6.667c.447 0 1.117-.136 1.516-.475.291-.243.583-.738.583-1.544V8z" fill="#000"/></svg>