<svg width="46" height="36" fill="none" xmlns="http://www.w3.org/2000/svg"><path d="M46 17.288l-3.17-4.22c-1.506 1.243-6.372 4.483-10.731 4.483-2.632 0-5.342-1.138-8.211-2.364-2.632-1.104-5.326-2.242-8.195-2.592.333-.386.697-.789 1.077-1.21 3.107-3.432 5.453-5.429 6.373-6.147.824.648 2.774 2.33 5.991 5.885a106.28 106.28 0 011.934 2.19c1.427-.018 3.25-.859 4.66-1.682a71.952 71.952 0 00-3.423-3.993C27.375 2.19 25.06.684 24.823.527c-1.189-.736-2.79-.701-3.884.105-.127.087-3.122 2.277-7.481 7.093-2.124 2.347-3.63 4.274-4.613 5.64C4.042 14.906.206 17.954 0 18.13l3.107 4.274c.063-.053 5.69-4.519 10.858-4.519 2.568 0 5.247 1.139 8.084 2.33 2.631 1.103 5.342 2.241 8.227 2.61-.413.472-.872.98-1.348 1.523-3.28 3.626-5.199 5.255-5.976 5.867-.903-.718-3.09-2.574-6.102-5.902a70.915 70.915 0 01-1.887-2.172l-.11-.14c-1.395 0-3.218.823-4.66 1.646a77.041 77.041 0 003.502 4.169c4.423 4.887 7.276 6.918 7.403 7.006 1.141.806 2.726.858 3.883.158.238-.14 2.457-1.577 7.292-6.936 2.33-2.575 3.883-4.537 4.898-5.903 4.803-1.541 8.623-4.676 8.829-4.852z" fill="#000"/></svg>