<svg width="50" height="61" fill="none" xmlns="http://www.w3.org/2000/svg"><path d="M50 24.526c0 9.713-5.755 18.107-14.103 22.08C33.333 49.365 25 61 25 61s-8.654-11.634-10.897-14.395C5.755 42.633 0 34.24 0 24.525 0 10.982 11.193 0 25 0s25 10.98 25 24.526z" fill="#000"/><path d="M37.94 24.433l-1.806-2.404c-.858.708-3.63 2.554-6.112 2.554-1.499 0-3.043-.649-4.677-1.347-1.499-.629-3.034-1.277-4.668-1.477.19-.22.398-.448.614-.688 1.77-1.955 3.106-3.093 3.63-3.502.47.37 1.58 1.327 3.412 3.352.452.5.759.848 1.102 1.247.812-.01 1.85-.488 2.654-.957a40.972 40.972 0 00-1.95-2.275c-2.808-3.102-4.126-3.96-4.261-4.05-.677-.42-1.59-.4-2.212.06-.073.05-1.779 1.297-4.262 4.04a37.527 37.527 0 00-2.627 3.212c-2.736.878-4.92 2.614-5.038 2.714l1.77 2.434c.036-.03 3.241-2.574 6.184-2.574 1.463 0 2.989.649 4.605 1.327 1.498.628 3.042 1.277 4.685 1.486-.234.27-.496.559-.767.868-1.869 2.065-2.961 2.993-3.404 3.342-.514-.409-1.76-1.466-3.476-3.362a40.428 40.428 0 01-1.074-1.237l-.063-.08c-.795 0-1.833.47-2.655.938.515.659 1.21 1.507 1.996 2.375 2.519 2.783 4.144 3.94 4.216 3.99.65.459 1.553.489 2.212.09.135-.08 1.4-.898 4.153-3.95 1.327-1.467 2.212-2.585 2.79-3.363 2.735-.878 4.911-2.663 5.029-2.763z" fill="#fff"/></svg>