<?xml version="1.0" encoding="utf-8"?><svg xmlns="http://www.w3.org/2000/svg" xmlns:xlink="http://www.w3.org/1999/xlink"><symbol viewBox="0 0 12 12" id="arrow-down" xmlns="http://www.w3.org/2000/svg"><g clip-path="url(#aclip0_145_1041)"><path d="M5.76 9.072L.1 3.41a.338.338 0 010-.48.338.338 0 01.48 0L6 8.35l5.42-5.42a.342.342 0 01.58.239.331.331 0 01-.1.24l-5.661 5.66a.338.338 0 01-.478.003z"/></g><defs><clipPath id="aclip0_145_1041"><path transform="matrix(0 1 1 0 0 0)" d="M0 0h12v12H0z"/></clipPath></defs></symbol><symbol viewBox="0 0 14 8" id="arrow-right" xmlns="http://www.w3.org/2000/svg"><path d="M13.354 4.354a.5.5 0 000-.708L10.172.464a.5.5 0 00-.708.708L12.293 4 9.464 6.828a.5.5 0 10.708.708l3.182-3.182zM0 4.5h13v-1H0v1z"/></symbol><symbol viewBox="0 0 18 14" id="mail" xmlns="http://www.w3.org/2000/svg"><path d="M9.023 8.2h.003a.7.7 0 00.379-.11l.03-.02.02-.012.342-.284 8.184-6.753a.096.096 0 00-.076-.04H.095a.092.092 0 00-.059.022L8.6 8.06a.67.67 0 00.424.14zM0 1.938V11.95l6.134-4.955L0 1.938zm11.873 5.09L18 11.952v-9.98l-6.127 5.056zM9.924 8.635c-.244.2-.563.31-.899.31-.337 0-.656-.11-.9-.309L6.722 7.478 0 12.906v.017c0 .052.044.096.096.096h17.809a.097.097 0 00.095-.096v-.016l-6.715-5.395-1.36 1.123z"/></symbol><symbol viewBox="0 0 13 18" id="mark" xmlns="http://www.w3.org/2000/svg"><path fill-rule="evenodd" clip-rule="evenodd" d="M12.469 3.932c.084.178.173.368.224.548l.012.035c.06.164.295.82.295 1.021v.848c0 1.499-1.01 3.014-2.02 4.528-.38.571-.762 1.142-1.088 1.712-.06.105-.155.215-.251.327a2.49 2.49 0 00-.257.329c-.081.136-.168.276-.256.416-.13.206-.26.415-.38.624-.398.648-.8 1.31-1.206 1.977-.345.567-.691 1.136-1.038 1.703l-.529-.814c-1.05-1.617-2.103-3.238-3.123-4.882a54.308 54.308 0 00-.712-1.112C1.19 9.738.215 8.242.028 6.816A7.206 7.206 0 010 6.352v-.768C.42 1.824 3.56 0 6.412 0c2.13 0 4.769.992 5.976 3.76l.08.172zm-8.213 2.9c.453 1.104 1.37 1.504 2.209 1.504 1.342 0 2.452-1.024 2.452-2.304 0-1.28-1.038-2.304-2.38-2.304-1.09 0-2.343.64-2.343 2.048v.502c0 .06-.002.387.062.554z"/></symbol><symbol viewBox="0 0 18 18" id="tel" xmlns="http://www.w3.org/2000/svg"><path fill-rule="evenodd" clip-rule="evenodd" d="M17.596 14.237l-2.78-2.786c-.553-.553-1.47-.536-2.043.038l-1.4 1.404-.277-.155c-.884-.49-2.095-1.164-3.368-2.441C6.45 9.017 5.778 7.8 5.286 6.914c-.052-.094-.101-.184-.15-.27l.94-.94.462-.465c.574-.575.59-1.494.037-2.048L3.795.404c-.552-.553-1.47-.536-2.043.039l-.784.79.022.02a4.543 4.543 0 00-.646 1.142 4.74 4.74 0 00-.287 1.158c-.367 3.05 1.023 5.837 4.797 9.62 5.217 5.227 9.42 4.833 9.602 4.813a4.689 4.689 0 001.158-.291 4.52 4.52 0 001.135-.645l.017.015.793-.778c.573-.576.59-1.495.037-2.05z"/></symbol></svg>